<svg> 
<circle cx="150.000000" cy="150.000000" r="120.000000" stroke="black" fill="blue" />
<rect x="240.000000" y="150.000000" width="10.000000" height="10.000000" stroke="black" fill="yellow" />
<rect x="213.639610" y="213.639610" width="10.000000" height="10.000000" stroke="black" fill="yellow" />
<rect x="150.000000" y="240.000000" width="10.000000" height="10.000000" stroke="black" fill="yellow" />
<rect x="86.360390" y="213.639610" width="10.000000" height="10.000000" stroke="black" fill="yellow" />
<rect x="60.000000" y="150.000000" width="10.000000" height="10.000000" stroke="black" fill="yellow" />
<rect x="86.360390" y="86.360390" width="10.000000" height="10.000000" stroke="black" fill="yellow" />
<rect x="150.000000" y="60.000000" width="10.000000" height="10.000000" stroke="black" fill="yellow" />
<rect x="213.639610" y="86.360390" width="10.000000" height="10.000000" stroke="black" fill="yellow" />
<rect x="30.000000" y="30.000000" width="240.000000" height="240.000000" stroke="red" fill-opacity="0" />
<rect x="30.000000" y="30.000000" width="240.000000" height="240.000000" stroke="red" fill-opacity="0" />
<rect x="30.000000" y="30.000000" width="240.000000" height="240.000000" stroke="red" fill-opacity="0" />
<rect x="30.000000" y="30.000000" width="240.000000" height="240.000000" stroke="red" fill-opacity="0" />
<rect x="30.000000" y="30.000000" width="240.000000" height="240.000000" stroke="red" fill-opacity="0" />
<rect x="30.000000" y="30.000000" width="240.000000" height="240.000000" stroke="red" fill-opacity="0" />
<rect x="30.000000" y="30.000000" width="240.000000" height="240.000000" stroke="red" fill-opacity="0" />
<rect x="30.000000" y="30.000000" width="240.000000" height="240.000000" stroke="red" fill-opacity="0" />
</svg>