<svg> 
<circle cx="0.000000" cy="0.000000" r="10.000000" stroke="black" fill="blue" />
<rect x="27.500000" y="0.000000" width="10.000000" height="15.000000" stroke="black" fill="yellow" />
<rect x="26.562960" y="7.117524" width="10.000000" height="15.000000" stroke="black" fill="yellow" />
<rect x="23.815699" y="13.750000" width="10.000000" height="15.000000" stroke="black" fill="yellow" />
<rect x="19.445436" y="19.445436" width="10.000000" height="15.000000" stroke="black" fill="yellow" />
<rect x="13.750000" y="23.815699" width="10.000000" height="15.000000" stroke="black" fill="yellow" />
<rect x="7.117524" y="26.562960" width="10.000000" height="15.000000" stroke="black" fill="yellow" />
<rect x="0.000000" y="27.500000" width="10.000000" height="15.000000" stroke="black" fill="yellow" />
<rect x="-7.117524" y="26.562960" width="10.000000" height="15.000000" stroke="black" fill="yellow" />
<rect x="-13.750000" y="23.815699" width="10.000000" height="15.000000" stroke="black" fill="yellow" />
<rect x="-19.445436" y="19.445436" width="10.000000" height="15.000000" stroke="black" fill="yellow" />
<rect x="-23.815699" y="13.750000" width="10.000000" height="15.000000" stroke="black" fill="yellow" />
<rect x="-26.562960" y="7.117524" width="10.000000" height="15.000000" stroke="black" fill="yellow" />
<rect x="-27.500000" y="0.000000" width="10.000000" height="15.000000" stroke="black" fill="yellow" />
<rect x="-26.562960" y="-7.117524" width="10.000000" height="15.000000" stroke="black" fill="yellow" />
<rect x="-23.815699" y="-13.750000" width="10.000000" height="15.000000" stroke="black" fill="yellow" />
<rect x="-19.445436" y="-19.445436" width="10.000000" height="15.000000" stroke="black" fill="yellow" />
<rect x="-13.750000" y="-23.815699" width="10.000000" height="15.000000" stroke="black" fill="yellow" />
<rect x="-7.117524" y="-26.562960" width="10.000000" height="15.000000" stroke="black" fill="yellow" />
<rect x="-0.000000" y="-27.500000" width="10.000000" height="15.000000" stroke="black" fill="yellow" />
<rect x="7.117524" y="-26.562960" width="10.000000" height="15.000000" stroke="black" fill="yellow" />
<rect x="13.750000" y="-23.815699" width="10.000000" height="15.000000" stroke="black" fill="yellow" />
<rect x="19.445436" y="-19.445436" width="10.000000" height="15.000000" stroke="black" fill="yellow" />
<rect x="23.815699" y="-13.750000" width="10.000000" height="15.000000" stroke="black" fill="yellow" />
<rect x="26.562960" y="-7.117524" width="10.000000" height="15.000000" stroke="black" fill="yellow" />
</svg>