<svg> 
<circle cx="0.000000" cy="0.000000" r="10.000000" stroke="black" fill="blue" />
<rect x="27.500000" y="0.000000" width="10.000000" height="15.000000" stroke="black" fill="yellow" />
<rect x="26.562960" y="7.117524" width="10.000000" height="15.000000" stroke="black" fill="yellow" />
<rect x="23.815699" y="13.750000" width="10.000000" height="15.000000" stroke="black" fill="yellow" />
<rect x="19.445436" y="19.445436" width="10.000000" height="15.000000" stroke="black" fill="yellow" />
<rect x="13.750000" y="23.815699" width="10.000000" height="15.000000" stroke="black" fill="yellow" />
<rect x="7.117524" y="26.562960" width="10.000000" height="15.000000" stroke="black" fill="yellow" />
<rect x="0.000000" y="27.500000" width="10.000000" height="15.000000" stroke="black" fill="yellow" />
<rect x="-7.117524" y="26.562960" width="10.000000" height="15.000000" stroke="black" fill="yellow" />
<rect x="-13.750000" y="23.815699" width="10.000000" height="15.000000" stroke="black" fill="yellow" />
<rect x="-19.445436" y="19.445436" width="10.000000" height="15.000000" stroke="black" fill="yellow" />
<rect x="-23.815699" y="13.750000" width="10.000000" height="15.000000" stroke="black" fill="yellow" />
<rect x="-26.562960" y="7.117524" width="10.000000" height="15.000000" stroke="black" fill="yellow" />
<rect x="-27.500000" y="0.000000" width="10.000000" height="15.000000" stroke="black" fill="yellow" />
<rect x="-26.562960" y="-7.117524" width="10.000000" height="15.000000" stroke="black" fill="yellow" />
<rect x="-23.815699" y="-13.750000" width="10.000000" height="15.000000" stroke="black" fill="yellow" />
<rect x="-19.445436" y="-19.445436" width="10.000000" height="15.000000" stroke="black" fill="yellow" />
<rect x="-13.750000" y="-23.815699" width="10.000000" height="15.000000" stroke="black" fill="yellow" />
<rect x="-7.117524" y="-26.562960" width="10.000000" height="15.000000" stroke="black" fill="yellow" />
<rect x="-0.000000" y="-27.500000" width="10.000000" height="15.000000" stroke="black" fill="yellow" />
<rect x="7.117524" y="-26.562960" width="10.000000" height="15.000000" stroke="black" fill="yellow" />
<rect x="13.750000" y="-23.815699" width="10.000000" height="15.000000" stroke="black" fill="yellow" />
<rect x="19.445436" y="-19.445436" width="10.000000" height="15.000000" stroke="black" fill="yellow" />
<rect x="23.815699" y="-13.750000" width="10.000000" height="15.000000" stroke="black" fill="yellow" />
<rect x="26.562960" y="-7.117524" width="10.000000" height="15.000000" stroke="black" fill="yellow" />
<rect x="-10.000000" y="-10.000000" width="47.500000" height="25.000000" stroke="red" fill-opacity="0" stroke-dasharray="5" />
<rect x="-10.000000" y="-10.000000" width="46.562960" height="32.117524" stroke="red" fill-opacity="0" stroke-dasharray="5" />
<rect x="-10.000000" y="-10.000000" width="43.815699" height="38.750000" stroke="red" fill-opacity="0" stroke-dasharray="5" />
<rect x="-10.000000" y="-10.000000" width="39.445436" height="44.445436" stroke="red" fill-opacity="0" stroke-dasharray="5" />
<rect x="-10.000000" y="-10.000000" width="33.750000" height="48.815699" stroke="red" fill-opacity="0" stroke-dasharray="5" />
<rect x="-10.000000" y="-10.000000" width="27.117524" height="51.562960" stroke="red" fill-opacity="0" stroke-dasharray="5" />
<rect x="-10.000000" y="-10.000000" width="20.000000" height="52.500000" stroke="red" fill-opacity="0" stroke-dasharray="5" />
<rect x="-10.000000" y="-10.000000" width="20.000000" height="51.562960" stroke="red" fill-opacity="0" stroke-dasharray="5" />
<rect x="-13.750000" y="-10.000000" width="23.750000" height="48.815699" stroke="red" fill-opacity="0" stroke-dasharray="5" />
<rect x="-19.445436" y="-10.000000" width="29.445436" height="44.445436" stroke="red" fill-opacity="0" stroke-dasharray="5" />
<rect x="-23.815699" y="-10.000000" width="33.815699" height="38.750000" stroke="red" fill-opacity="0" stroke-dasharray="5" />
<rect x="-26.562960" y="-10.000000" width="36.562960" height="32.117524" stroke="red" fill-opacity="0" stroke-dasharray="5" />
<rect x="-27.500000" y="-10.000000" width="37.500000" height="25.000000" stroke="red" fill-opacity="0" stroke-dasharray="5" />
<rect x="-26.562960" y="-10.000000" width="36.562960" height="20.000000" stroke="red" fill-opacity="0" stroke-dasharray="5" />
<rect x="-23.815699" y="-13.750000" width="33.815699" height="23.750000" stroke="red" fill-opacity="0" stroke-dasharray="5" />
<rect x="-19.445436" y="-19.445436" width="29.445436" height="29.445436" stroke="red" fill-opacity="0" stroke-dasharray="5" />
<rect x="-13.750000" y="-23.815699" width="23.750000" height="33.815699" stroke="red" fill-opacity="0" />
<rect x="-10.000000" y="-26.562960" width="20.000000" height="36.562960" stroke="red" fill-opacity="0" stroke-dasharray="5" />
<rect x="-10.000000" y="-27.500000" width="20.000000" height="37.500000" stroke="red" fill-opacity="0" stroke-dasharray="5" />
<rect x="-10.000000" y="-26.562960" width="27.117524" height="36.562960" stroke="red" fill-opacity="0" stroke-dasharray="5" />
<rect x="-10.000000" y="-23.815699" width="33.750000" height="33.815699" stroke="red" fill-opacity="0" stroke-dasharray="5" />
<rect x="-10.000000" y="-19.445436" width="39.445436" height="29.445436" stroke="red" fill-opacity="0" stroke-dasharray="5" />
<rect x="-10.000000" y="-13.750000" width="43.815699" height="23.750000" stroke="red" fill-opacity="0" stroke-dasharray="5" />
<rect x="-10.000000" y="-10.000000" width="46.562960" height="20.000000" stroke="red" fill-opacity="0" stroke-dasharray="5" />
</svg>