<svg> 
<rect x="14.000000" y="1.000000" width="6.000000" height="1.000000" stroke="darkturquoise" fill="gold" stroke-width="2px" />
<rect x="51.000000" y="29.000000" width="3.000000" height="6.000000" stroke="chocolate" fill="darkgray" stroke-width="2px" />
<circle cx="29.000000" cy="68.000000" r="2.000000" stroke="coral" fill="darkgreen" stroke-width="2px" />
<circle cx="61.000000" cy="3.000000" r="1.000000" stroke="darkmagenta" fill="red" stroke-width="2px" />
<rect x="900.000000" y="900.000000" width="120.000000" height="80.000000" stroke="black" fill="pink" stroke-width="2px" />
<text x="900.000000" y="916.000000" fill="white" font-size="16" style="z-index:100">cep_24</text>
<rect x="720.000000" y="900.000000" width="120.000000" height="80.000000" stroke="black" fill="pink" stroke-width="2px" />
<text x="720.000000" y="916.000000" fill="white" font-size="16" style="z-index:100">cep_23</text>
<rect x="540.000000" y="900.000000" width="120.000000" height="80.000000" stroke="black" fill="pink" stroke-width="2px" />
<text x="540.000000" y="916.000000" fill="white" font-size="16" style="z-index:100">cep_22</text>
<rect x="360.000000" y="900.000000" width="120.000000" height="80.000000" stroke="black" fill="pink" stroke-width="2px" />
<text x="360.000000" y="916.000000" fill="white" font-size="16" style="z-index:100">cep_21</text>
<rect x="180.000000" y="900.000000" width="120.000000" height="80.000000" stroke="black" fill="pink" stroke-width="2px" />
<text x="180.000000" y="916.000000" fill="white" font-size="16" style="z-index:100">cep_20</text>
<rect x="900.000000" y="720.000000" width="120.000000" height="80.000000" stroke="black" fill="pink" stroke-width="2px" />
<text x="900.000000" y="736.000000" fill="white" font-size="16" style="z-index:100">cep_19</text>
<rect x="720.000000" y="720.000000" width="120.000000" height="80.000000" stroke="black" fill="pink" stroke-width="2px" />
<text x="720.000000" y="736.000000" fill="white" font-size="16" style="z-index:100">cep_18</text>
<rect x="540.000000" y="720.000000" width="120.000000" height="80.000000" stroke="black" fill="pink" stroke-width="2px" />
<text x="540.000000" y="736.000000" fill="white" font-size="16" style="z-index:100">cep_17</text>
<rect x="360.000000" y="720.000000" width="120.000000" height="80.000000" stroke="black" fill="pink" stroke-width="2px" />
<text x="360.000000" y="736.000000" fill="white" font-size="16" style="z-index:100">cep_16</text>
<rect x="180.000000" y="720.000000" width="120.000000" height="80.000000" stroke="black" fill="pink" stroke-width="2px" />
<text x="180.000000" y="736.000000" fill="white" font-size="16" style="z-index:100">cep_15</text>
<rect x="900.000000" y="540.000000" width="120.000000" height="80.000000" stroke="black" fill="pink" stroke-width="2px" />
<text x="900.000000" y="556.000000" fill="white" font-size="16" style="z-index:100">cep_14</text>
<rect x="720.000000" y="540.000000" width="120.000000" height="80.000000" stroke="black" fill="pink" stroke-width="2px" />
<text x="720.000000" y="556.000000" fill="white" font-size="16" style="z-index:100">cep_13</text>
<rect x="540.000000" y="540.000000" width="120.000000" height="80.000000" stroke="black" fill="pink" stroke-width="2px" />
<text x="540.000000" y="556.000000" fill="white" font-size="16" style="z-index:100">cep_12</text>
<rect x="360.000000" y="540.000000" width="120.000000" height="80.000000" stroke="black" fill="pink" stroke-width="2px" />
<text x="360.000000" y="556.000000" fill="white" font-size="16" style="z-index:100">cep_11</text>
<rect x="180.000000" y="540.000000" width="120.000000" height="80.000000" stroke="black" fill="pink" stroke-width="2px" />
<text x="180.000000" y="556.000000" fill="white" font-size="16" style="z-index:100">cep_10</text>
<rect x="900.000000" y="360.000000" width="120.000000" height="80.000000" stroke="black" fill="pink" stroke-width="2px" />
<text x="900.000000" y="376.000000" fill="white" font-size="16" style="z-index:100">cep_9</text>
<rect x="720.000000" y="360.000000" width="120.000000" height="80.000000" stroke="black" fill="pink" stroke-width="2px" />
<text x="720.000000" y="376.000000" fill="white" font-size="16" style="z-index:100">cep_8</text>
<rect x="540.000000" y="360.000000" width="120.000000" height="80.000000" stroke="black" fill="pink" stroke-width="2px" />
<text x="540.000000" y="376.000000" fill="white" font-size="16" style="z-index:100">cep_7</text>
<rect x="360.000000" y="360.000000" width="120.000000" height="80.000000" stroke="black" fill="pink" stroke-width="2px" />
<text x="360.000000" y="376.000000" fill="white" font-size="16" style="z-index:100">cep_6</text>
<rect x="180.000000" y="360.000000" width="120.000000" height="80.000000" stroke="black" fill="pink" stroke-width="2px" />
<text x="180.000000" y="376.000000" fill="white" font-size="16" style="z-index:100">cep_5</text>
<rect x="900.000000" y="180.000000" width="120.000000" height="80.000000" stroke="black" fill="pink" stroke-width="2px" />
<text x="900.000000" y="196.000000" fill="white" font-size="16" style="z-index:100">cep_4</text>
<rect x="720.000000" y="180.000000" width="120.000000" height="80.000000" stroke="black" fill="pink" stroke-width="2px" />
<text x="720.000000" y="196.000000" fill="white" font-size="16" style="z-index:100">cep_3</text>
<rect x="540.000000" y="180.000000" width="120.000000" height="80.000000" stroke="black" fill="pink" stroke-width="2px" />
<text x="540.000000" y="196.000000" fill="white" font-size="16" style="z-index:100">cep_2</text>
<rect x="360.000000" y="180.000000" width="120.000000" height="80.000000" stroke="black" fill="pink" stroke-width="2px" />
<text x="360.000000" y="196.000000" fill="white" font-size="16" style="z-index:100">cep_1</text>
<rect x="180.000000" y="180.000000" width="120.000000" height="80.000000" stroke="black" fill="pink" stroke-width="2px" />
<text x="180.000000" y="196.000000" fill="white" font-size="16" style="z-index:100">cep_0</text>
<circle cx="947.000000" cy="931.000000" r="5" stroke="black" fill="red" stroke-width="2px" />
<text x="943.800000" y="934.000000" fill="white" font-size="9" style="z-index:100 ">H</text>
<circle cx="912.000000" cy="919.000000" r="5" stroke="black" fill="red" stroke-width="2px" />
<text x="908.800000" y="922.000000" fill="white" font-size="9" style="z-index:100 ">H</text>
<circle cx="1009.000000" cy="943.000000" r="5" stroke="black" fill="red" stroke-width="2px" />
<text x="1005.800000" y="946.000000" fill="white" font-size="9" style="z-index:100 ">H</text>
<circle cx="908.000000" cy="960.000000" r="5" stroke="black" fill="red" stroke-width="2px" />
<text x="904.800000" y="963.000000" fill="white" font-size="9" style="z-index:100 ">H</text>
<circle cx="746.000000" cy="904.000000" r="5" stroke="black" fill="red" stroke-width="2px" />
<text x="742.800000" y="907.000000" fill="white" font-size="9" style="z-index:100 ">H</text>
<circle cx="742.000000" cy="947.000000" r="5" stroke="black" fill="red" stroke-width="2px" />
<text x="738.800000" y="950.000000" fill="white" font-size="9" style="z-index:100 ">H</text>
<circle cx="747.000000" cy="902.000000" r="5" stroke="black" fill="red" stroke-width="2px" />
<text x="743.800000" y="905.000000" fill="white" font-size="9" style="z-index:100 ">H</text>
<circle cx="764.000000" cy="974.000000" r="5" stroke="black" fill="red" stroke-width="2px" />
<text x="760.800000" y="977.000000" fill="white" font-size="9" style="z-index:100 ">H</text>
<circle cx="628.000000" cy="902.000000" r="5" stroke="black" fill="red" stroke-width="2px" />
<text x="624.800000" y="905.000000" fill="white" font-size="9" style="z-index:100 ">H</text>
<circle cx="603.000000" cy="923.000000" r="5" stroke="black" fill="red" stroke-width="2px" />
<text x="599.800000" y="926.000000" fill="white" font-size="9" style="z-index:100 ">H</text>
<circle cx="608.000000" cy="951.000000" r="5" stroke="black" fill="red" stroke-width="2px" />
<text x="604.800000" y="954.000000" fill="white" font-size="9" style="z-index:100 ">H</text>
<circle cx="433.000000" cy="915.000000" r="5" stroke="black" fill="red" stroke-width="2px" />
<text x="429.800000" y="918.000000" fill="white" font-size="9" style="z-index:100 ">H</text>
<circle cx="360.000000" cy="918.000000" r="5" stroke="black" fill="red" stroke-width="2px" />
<text x="356.800000" y="921.000000" fill="white" font-size="9" style="z-index:100 ">H</text>
<circle cx="1018.000000" cy="728.000000" r="5" stroke="black" fill="red" stroke-width="2px" />
<text x="1014.800000" y="731.000000" fill="white" font-size="9" style="z-index:100 ">H</text>
<circle cx="928.000000" cy="739.000000" r="5" stroke="black" fill="red" stroke-width="2px" />
<text x="924.800000" y="742.000000" fill="white" font-size="9" style="z-index:100 ">H</text>
<circle cx="955.000000" cy="724.000000" r="5" stroke="black" fill="red" stroke-width="2px" />
<text x="951.800000" y="727.000000" fill="white" font-size="9" style="z-index:100 ">H</text>
<circle cx="829.000000" cy="772.000000" r="5" stroke="black" fill="red" stroke-width="2px" />
<text x="825.800000" y="775.000000" fill="white" font-size="9" style="z-index:100 ">H</text>
<circle cx="731.000000" cy="744.000000" r="5" stroke="black" fill="red" stroke-width="2px" />
<text x="727.800000" y="747.000000" fill="white" font-size="9" style="z-index:100 ">H</text>
<circle cx="826.000000" cy="740.000000" r="5" stroke="black" fill="red" stroke-width="2px" />
<text x="822.800000" y="743.000000" fill="white" font-size="9" style="z-index:100 ">H</text>
<circle cx="419.000000" cy="777.000000" r="5" stroke="black" fill="red" stroke-width="2px" />
<text x="415.800000" y="780.000000" fill="white" font-size="9" style="z-index:100 ">H</text>
<circle cx="403.000000" cy="759.000000" r="5" stroke="black" fill="red" stroke-width="2px" />
<text x="399.800000" y="762.000000" fill="white" font-size="9" style="z-index:100 ">H</text>
<circle cx="421.000000" cy="737.000000" r="5" stroke="black" fill="red" stroke-width="2px" />
<text x="417.800000" y="740.000000" fill="white" font-size="9" style="z-index:100 ">H</text>
<circle cx="380.000000" cy="748.000000" r="5" stroke="black" fill="red" stroke-width="2px" />
<text x="376.800000" y="751.000000" fill="white" font-size="9" style="z-index:100 ">H</text>
<circle cx="223.000000" cy="732.000000" r="5" stroke="black" fill="red" stroke-width="2px" />
<text x="219.800000" y="735.000000" fill="white" font-size="9" style="z-index:100 ">H</text>
<circle cx="267.000000" cy="789.000000" r="5" stroke="black" fill="red" stroke-width="2px" />
<text x="263.800000" y="792.000000" fill="white" font-size="9" style="z-index:100 ">H</text>
<circle cx="244.000000" cy="798.000000" r="5" stroke="black" fill="red" stroke-width="2px" />
<text x="240.800000" y="801.000000" fill="white" font-size="9" style="z-index:100 ">H</text>
<circle cx="940.000000" cy="551.000000" r="5" stroke="black" fill="red" stroke-width="2px" />
<text x="936.800000" y="554.000000" fill="white" font-size="9" style="z-index:100 ">H</text>
<circle cx="935.000000" cy="606.000000" r="5" stroke="black" fill="red" stroke-width="2px" />
<text x="931.800000" y="609.000000" fill="white" font-size="9" style="z-index:100 ">H</text>
<circle cx="755.000000" cy="547.000000" r="5" stroke="black" fill="red" stroke-width="2px" />
<text x="751.800000" y="550.000000" fill="white" font-size="9" style="z-index:100 ">H</text>
<circle cx="720.000000" cy="559.000000" r="5" stroke="black" fill="red" stroke-width="2px" />
<text x="716.800000" y="562.000000" fill="white" font-size="9" style="z-index:100 ">H</text>
<circle cx="649.000000" cy="590.000000" r="5" stroke="black" fill="red" stroke-width="2px" />
<text x="645.800000" y="593.000000" fill="white" font-size="9" style="z-index:100 ">H</text>
<circle cx="546.000000" cy="613.000000" r="5" stroke="black" fill="red" stroke-width="2px" />
<text x="542.800000" y="616.000000" fill="white" font-size="9" style="z-index:100 ">H</text>
<circle cx="396.000000" cy="552.000000" r="5" stroke="black" fill="red" stroke-width="2px" />
<text x="392.800000" y="555.000000" fill="white" font-size="9" style="z-index:100 ">H</text>
<circle cx="412.000000" cy="617.000000" r="5" stroke="black" fill="red" stroke-width="2px" />
<text x="408.800000" y="620.000000" fill="white" font-size="9" style="z-index:100 ">H</text>
<circle cx="434.000000" cy="600.000000" r="5" stroke="black" fill="red" stroke-width="2px" />
<text x="430.800000" y="603.000000" fill="white" font-size="9" style="z-index:100 ">H</text>
<circle cx="228.000000" cy="543.000000" r="5" stroke="black" fill="red" stroke-width="2px" />
<text x="224.800000" y="546.000000" fill="white" font-size="9" style="z-index:100 ">H</text>
<circle cx="903.000000" cy="360.000000" r="5" stroke="black" fill="red" stroke-width="2px" />
<text x="899.800000" y="363.000000" fill="white" font-size="9" style="z-index:100 ">H</text>
<circle cx="641.000000" cy="401.000000" r="5" stroke="black" fill="red" stroke-width="2px" />
<text x="637.800000" y="404.000000" fill="white" font-size="9" style="z-index:100 ">H</text>
<circle cx="547.000000" cy="433.000000" r="5" stroke="black" fill="red" stroke-width="2px" />
<text x="543.800000" y="436.000000" fill="white" font-size="9" style="z-index:100 ">H</text>
<circle cx="621.000000" cy="366.000000" r="5" stroke="black" fill="red" stroke-width="2px" />
<text x="617.800000" y="369.000000" fill="white" font-size="9" style="z-index:100 ">H</text>
<circle cx="194.000000" cy="376.000000" r="5" stroke="black" fill="red" stroke-width="2px" />
<text x="190.800000" y="379.000000" fill="white" font-size="9" style="z-index:100 ">H</text>
<circle cx="257.000000" cy="377.000000" r="5" stroke="black" fill="red" stroke-width="2px" />
<text x="253.800000" y="380.000000" fill="white" font-size="9" style="z-index:100 ">H</text>
<circle cx="923.000000" cy="187.000000" r="5" stroke="black" fill="red" stroke-width="2px" />
<text x="919.800000" y="190.000000" fill="white" font-size="9" style="z-index:100 ">H</text>
<circle cx="909.000000" cy="243.000000" r="5" stroke="black" fill="red" stroke-width="2px" />
<text x="905.800000" y="246.000000" fill="white" font-size="9" style="z-index:100 ">H</text>
<circle cx="964.000000" cy="196.000000" r="5" stroke="black" fill="red" stroke-width="2px" />
<text x="960.800000" y="199.000000" fill="white" font-size="9" style="z-index:100 ">H</text>
<circle cx="659.000000" cy="194.000000" r="5" stroke="black" fill="red" stroke-width="2px" />
<text x="655.800000" y="197.000000" fill="white" font-size="9" style="z-index:100 ">H</text>
<circle cx="624.000000" cy="188.000000" r="5" stroke="black" fill="red" stroke-width="2px" />
<text x="620.800000" y="191.000000" fill="white" font-size="9" style="z-index:100 ">H</text>
<circle cx="588.000000" cy="184.000000" r="5" stroke="black" fill="red" stroke-width="2px" />
<text x="584.800000" y="187.000000" fill="white" font-size="9" style="z-index:100 ">H</text>
<circle cx="596.000000" cy="218.000000" r="5" stroke="black" fill="red" stroke-width="2px" />
<text x="592.800000" y="221.000000" fill="white" font-size="9" style="z-index:100 ">H</text>
<circle cx="448.000000" cy="211.000000" r="5" stroke="black" fill="red" stroke-width="2px" />
<text x="444.800000" y="214.000000" fill="white" font-size="9" style="z-index:100 ">H</text>
<circle cx="470.000000" cy="218.000000" r="5" stroke="black" fill="red" stroke-width="2px" />
<text x="466.800000" y="221.000000" fill="white" font-size="9" style="z-index:100 ">H</text>
<circle cx="396.000000" cy="251.000000" r="5" stroke="black" fill="red" stroke-width="2px" />
<text x="392.800000" y="254.000000" fill="white" font-size="9" style="z-index:100 ">H</text>
</svg>