<svg> 
<circle cx="30.000000" cy="30.000000" r="30.000000" stroke="black" fill="blue" />
<rect x="57.000000" y="30.000000" width="20.000000" height="15.000000" stroke="black" fill="yellow" />
<rect x="56.079997" y="36.988114" width="20.000000" height="15.000000" stroke="black" fill="yellow" />
<rect x="53.382686" y="43.500000" width="20.000000" height="15.000000" stroke="black" fill="yellow" />
<rect x="49.091883" y="49.091883" width="20.000000" height="15.000000" stroke="black" fill="yellow" />
<rect x="43.500000" y="53.382686" width="20.000000" height="15.000000" stroke="black" fill="yellow" />
<rect x="36.988114" y="56.079997" width="20.000000" height="15.000000" stroke="black" fill="yellow" />
<rect x="30.000000" y="57.000000" width="20.000000" height="15.000000" stroke="black" fill="yellow" />
<rect x="23.011886" y="56.079997" width="20.000000" height="15.000000" stroke="black" fill="yellow" />
<rect x="16.500000" y="53.382686" width="20.000000" height="15.000000" stroke="black" fill="yellow" />
<rect x="10.908117" y="49.091883" width="20.000000" height="15.000000" stroke="black" fill="yellow" />
<rect x="6.617314" y="43.500000" width="20.000000" height="15.000000" stroke="black" fill="yellow" />
<rect x="3.920003" y="36.988114" width="20.000000" height="15.000000" stroke="black" fill="yellow" />
<rect x="3.000000" y="30.000000" width="20.000000" height="15.000000" stroke="black" fill="yellow" />
<rect x="3.920003" y="23.011886" width="20.000000" height="15.000000" stroke="black" fill="yellow" />
<rect x="6.617314" y="16.500000" width="20.000000" height="15.000000" stroke="black" fill="yellow" />
<rect x="10.908117" y="10.908117" width="20.000000" height="15.000000" stroke="black" fill="yellow" />
<rect x="16.500000" y="6.617314" width="20.000000" height="15.000000" stroke="black" fill="yellow" />
<rect x="23.011886" y="3.920003" width="20.000000" height="15.000000" stroke="black" fill="yellow" />
<rect x="30.000000" y="3.000000" width="20.000000" height="15.000000" stroke="black" fill="yellow" />
<rect x="36.988114" y="3.920003" width="20.000000" height="15.000000" stroke="black" fill="yellow" />
<rect x="43.500000" y="6.617314" width="20.000000" height="15.000000" stroke="black" fill="yellow" />
<rect x="49.091883" y="10.908117" width="20.000000" height="15.000000" stroke="black" fill="yellow" />
<rect x="53.382686" y="16.500000" width="20.000000" height="15.000000" stroke="black" fill="yellow" />
<rect x="56.079997" y="23.011886" width="20.000000" height="15.000000" stroke="black" fill="yellow" />
<rect x="0.000000" y="0.000000" width="77.000000" height="60.000000" stroke="red" fill-opacity="0" />
<rect x="0.000000" y="0.000000" width="76.079997" height="60.000000" stroke="red" fill-opacity="0" />
<rect x="0.000000" y="0.000000" width="73.382686" height="60.000000" stroke="red" fill-opacity="0" />
<rect x="0.000000" y="0.000000" width="69.091883" height="64.091883" stroke="red" fill-opacity="0" />
<rect x="0.000000" y="0.000000" width="63.500000" height="68.382686" stroke="red" fill-opacity="0" />
<rect x="0.000000" y="0.000000" width="60.000000" height="71.079997" stroke="red" fill-opacity="0" />
<rect x="0.000000" y="0.000000" width="60.000000" height="72.000000" stroke="red" fill-opacity="0" />
<rect x="0.000000" y="0.000000" width="60.000000" height="71.079997" stroke="red" fill-opacity="0" />
<rect x="0.000000" y="0.000000" width="60.000000" height="68.382686" stroke="red" fill-opacity="0" />
<rect x="0.000000" y="0.000000" width="60.000000" height="64.091883" stroke="red" fill-opacity="0" />
<rect x="0.000000" y="0.000000" width="60.000000" height="60.000000" stroke="red" fill-opacity="0" />
<rect x="0.000000" y="0.000000" width="60.000000" height="60.000000" stroke="red" fill-opacity="0" />
<rect x="0.000000" y="0.000000" width="60.000000" height="60.000000" stroke="red" fill-opacity="0" />
<rect x="0.000000" y="0.000000" width="60.000000" height="60.000000" stroke="red" fill-opacity="0" />
<rect x="0.000000" y="0.000000" width="60.000000" height="60.000000" stroke="red" fill-opacity="0" />
<rect x="0.000000" y="0.000000" width="60.000000" height="60.000000" stroke="red" fill-opacity="0" />
<rect x="0.000000" y="0.000000" width="60.000000" height="60.000000" stroke="red" fill-opacity="0" />
<rect x="0.000000" y="0.000000" width="60.000000" height="60.000000" stroke="red" fill-opacity="0" />
<rect x="0.000000" y="0.000000" width="60.000000" height="60.000000" stroke="red" fill-opacity="0" />
<rect x="0.000000" y="0.000000" width="60.000000" height="60.000000" stroke="red" fill-opacity="0" />
<rect x="0.000000" y="0.000000" width="63.500000" height="60.000000" stroke="red" fill-opacity="0" />
<rect x="0.000000" y="0.000000" width="69.091883" height="60.000000" stroke="red" fill-opacity="0" />
<rect x="0.000000" y="0.000000" width="73.382686" height="60.000000" stroke="red" fill-opacity="0" />
<rect x="0.000000" y="0.000000" width="76.079997" height="60.000000" stroke="red" fill-opacity="0" />
</svg>