<svg> 
<circle cx="50.000000" cy="50.000000" r="40.000000" stroke="black" fill="blue" />
<rect x="160.000000" y="50.000000" width="5.000000" height="5.000000" stroke="black" fill="yellow" />
<rect x="127.781746" y="127.781746" width="5.000000" height="5.000000" stroke="black" fill="yellow" />
<rect x="50.000000" y="160.000000" width="5.000000" height="5.000000" stroke="black" fill="yellow" />
<rect x="-27.781746" y="127.781746" width="5.000000" height="5.000000" stroke="black" fill="yellow" />
<rect x="-60.000000" y="50.000000" width="5.000000" height="5.000000" stroke="black" fill="yellow" />
<rect x="-27.781746" y="-27.781746" width="5.000000" height="5.000000" stroke="black" fill="yellow" />
<rect x="50.000000" y="-60.000000" width="5.000000" height="5.000000" stroke="black" fill="yellow" />
<rect x="127.781746" y="-27.781746" width="5.000000" height="5.000000" stroke="black" fill="yellow" />
<rect x="10.000000" y="10.000000" width="155.000000" height="80.000000" stroke="red" fill-opacity="0" stroke-dasharray="5" />
<rect x="10.000000" y="10.000000" width="122.781746" height="122.781746" stroke="red" fill-opacity="0" stroke-dasharray="5" />
<rect x="10.000000" y="10.000000" width="80.000000" height="155.000000" stroke="red" fill-opacity="0" stroke-dasharray="5" />
<rect x="-27.781746" y="10.000000" width="117.781746" height="122.781746" stroke="red" fill-opacity="0" stroke-dasharray="5" />
<rect x="-60.000000" y="10.000000" width="150.000000" height="80.000000" stroke="red" fill-opacity="0" stroke-dasharray="5" />
<rect x="-27.781746" y="-27.781746" width="117.781746" height="117.781746" stroke="red" fill-opacity="0" stroke-dasharray="5" />
<rect x="10.000000" y="-60.000000" width="80.000000" height="150.000000" stroke="red" fill-opacity="0" stroke-dasharray="5" />
<rect x="10.000000" y="-27.781746" width="122.781746" height="117.781746" stroke="red" fill-opacity="0" stroke-dasharray="5" />
</svg>