<svg> 
<circle cx="1177.300000" cy="736.500000" r="30.000000" stroke="black" fill="yellow" />
<circle cx="1202.800000" cy="736.500000" r="30.000000" stroke="black" fill="blue" />
<rect x="1101.288524" y="301.729933" width="30.000000" height="22.500000" stroke="black" fill="yellow" />
<circle cx="1086.300000" cy="281.100000" r="30.000000" stroke="black" fill="blue" />
<rect x="318.500000" y="280.300000" width="30.000000" height="30.000000" stroke="black" fill="yellow" />
<rect x="344.000000" y="305.800000" width="30.000000" height="30.000000" stroke="black" fill="blue" />
<circle cx="1169.700000" cy="712.800000" r="30.000000" stroke="black" fill="yellow" />
<circle cx="1195.200000" cy="712.800000" r="30.000000" stroke="black" fill="blue" />
<rect x="144.614229" y="623.744522" width="30.000000" height="22.500000" stroke="black" fill="yellow" />
<circle cx="169.000000" cy="631.200000" r="30.000000" stroke="black" fill="blue" />
<rect x="40.000000" y="25.000000" width="30.000000" height="30.000000" stroke="black" fill="yellow" />
<rect x="65.500000" y="50.500000" width="30.000000" height="30.000000" stroke="black" fill="blue" />
<circle cx="1039.300000" cy="801.500000" r="30.000000" stroke="black" fill="yellow" />
<circle cx="1064.800000" cy="801.500000" r="30.000000" stroke="black" fill="blue" />
<rect x="619.034524" y="545.239692" width="30.000000" height="22.500000" stroke="black" fill="yellow" />
<circle cx="621.700000" cy="570.600000" r="30.000000" stroke="black" fill="blue" />
<rect x="110.000000" y="145.900000" width="30.000000" height="30.000000" stroke="black" fill="yellow" />
<rect x="135.500000" y="171.400000" width="30.000000" height="30.000000" stroke="black" fill="blue" />
<circle cx="399.700000" cy="692.500000" r="30.000000" stroke="black" fill="yellow" />
<circle cx="425.200000" cy="692.500000" r="30.000000" stroke="black" fill="blue" />
<circle cx="852.100000" cy="131.100000" r="20.000000" stroke="black" fill="yellow" />
<circle cx="889.100000" cy="131.100000" r="20.000000" stroke="black" fill="blue" />
<rect x="325.756409" y="270.715190" width="20.000000" height="15.000000" stroke="black" fill="yellow" />
<circle cx="306.700000" cy="239.000000" r="20.000000" stroke="black" fill="blue" />
<rect x="364.500000" y="517.600000" width="20.000000" height="20.000000" stroke="black" fill="yellow" />
<rect x="401.500000" y="554.600000" width="20.000000" height="20.000000" stroke="black" fill="blue" />
<circle cx="393.400000" cy="813.400000" r="20.000000" stroke="black" fill="yellow" />
<circle cx="430.400000" cy="813.400000" r="20.000000" stroke="black" fill="blue" />
<rect x="479.315573" y="675.402360" width="20.000000" height="15.000000" stroke="black" fill="yellow" />
<circle cx="452.700000" cy="649.700000" r="20.000000" stroke="black" fill="blue" />
<rect x="1004.700000" y="734.600000" width="20.000000" height="20.000000" stroke="black" fill="yellow" />
<rect x="1041.700000" y="771.600000" width="20.000000" height="20.000000" stroke="black" fill="blue" />
<circle cx="700.600000" cy="464.600000" r="20.000000" stroke="black" fill="yellow" />
<circle cx="737.600000" cy="464.600000" r="20.000000" stroke="black" fill="blue" />
<rect x="598.948054" y="572.466371" width="20.000000" height="15.000000" stroke="black" fill="yellow" />
<circle cx="577.200000" cy="602.400000" r="20.000000" stroke="black" fill="blue" />
<rect x="226.500000" y="461.000000" width="20.000000" height="20.000000" stroke="black" fill="yellow" />
<rect x="263.500000" y="498.000000" width="20.000000" height="20.000000" stroke="black" fill="blue" />
<circle cx="595.900000" cy="870.400000" r="20.000000" stroke="black" fill="yellow" />
<circle cx="632.900000" cy="870.400000" r="20.000000" stroke="black" fill="blue" />
<rect x="491.262951" y="290.462951" width="20.000000" height="15.000000" stroke="black" fill="yellow" />
<circle cx="465.100000" cy="264.300000" r="20.000000" stroke="black" fill="blue" />
<rect x="949.600000" y="826.300000" width="20.000000" height="20.000000" stroke="black" fill="yellow" />
<rect x="986.600000" y="863.300000" width="20.000000" height="20.000000" stroke="black" fill="blue" />
<circle cx="676.500000" cy="350.100000" r="20.000000" stroke="black" fill="yellow" />
<circle cx="713.500000" cy="350.100000" r="20.000000" stroke="black" fill="blue" />
<rect x="288.722220" y="28.607013" width="20.000000" height="15.000000" stroke="black" fill="yellow" />
<circle cx="320.100000" cy="9.000000" r="20.000000" stroke="black" fill="blue" />
<rect x="428.100000" y="290.600000" width="20.000000" height="20.000000" stroke="black" fill="yellow" />
<rect x="465.100000" y="327.600000" width="20.000000" height="20.000000" stroke="black" fill="blue" />
<circle cx="790.800000" cy="741.300000" r="20.000000" stroke="black" fill="yellow" />
<circle cx="827.800000" cy="741.300000" r="20.000000" stroke="black" fill="blue" />
<rect x="1174.483142" y="669.256356" width="20.000000" height="15.000000" stroke="black" fill="yellow" />
<circle cx="1150.700000" cy="697.600000" r="20.000000" stroke="black" fill="blue" />
<rect x="464.900000" y="423.900000" width="20.000000" height="20.000000" stroke="black" fill="yellow" />
<rect x="501.900000" y="460.900000" width="20.000000" height="20.000000" stroke="black" fill="blue" />
<circle cx="36.600000" cy="609.300000" r="20.000000" stroke="black" fill="yellow" />
<circle cx="73.600000" cy="609.300000" r="20.000000" stroke="black" fill="blue" />
<rect x="865.350595" y="824.339919" width="20.000000" height="15.000000" stroke="black" fill="yellow" />
<circle cx="870.500000" cy="787.700000" r="20.000000" stroke="black" fill="blue" />
<rect x="458.800000" y="783.500000" width="20.000000" height="20.000000" stroke="black" fill="yellow" />
<rect x="495.800000" y="820.500000" width="20.000000" height="20.000000" stroke="black" fill="blue" />
<circle cx="556.400000" cy="868.300000" r="20.000000" stroke="black" fill="yellow" />
<circle cx="593.400000" cy="868.300000" r="20.000000" stroke="black" fill="blue" />
<rect x="372.301182" y="152.050744" width="20.000000" height="15.000000" stroke="black" fill="yellow" />
<circle cx="338.500000" cy="167.100000" r="20.000000" stroke="black" fill="blue" />
<rect x="871.500000" y="671.000000" width="20.000000" height="20.000000" stroke="black" fill="yellow" />
<rect x="908.500000" y="708.000000" width="20.000000" height="20.000000" stroke="black" fill="blue" />
<circle cx="445.400000" cy="744.400000" r="20.000000" stroke="black" fill="yellow" />
<circle cx="482.400000" cy="744.400000" r="20.000000" stroke="black" fill="blue" />
<rect x="131.794197" y="700.360444" width="20.000000" height="15.000000" stroke="black" fill="yellow" />
<circle cx="166.100000" cy="686.500000" r="20.000000" stroke="black" fill="blue" />
<rect x="982.100000" y="186.000000" width="20.000000" height="20.000000" stroke="black" fill="yellow" />
<rect x="1019.100000" y="223.000000" width="20.000000" height="20.000000" stroke="black" fill="blue" />
<circle cx="1126.900000" cy="785.100000" r="20.000000" stroke="black" fill="yellow" />
<circle cx="1163.900000" cy="785.100000" r="20.000000" stroke="black" fill="blue" />
<rect x="821.398818" y="244.749256" width="20.000000" height="15.000000" stroke="black" fill="yellow" />
<circle cx="855.200000" cy="229.700000" r="20.000000" stroke="black" fill="blue" />
<rect x="321.700000" y="658.100000" width="20.000000" height="20.000000" stroke="black" fill="yellow" />
<rect x="358.700000" y="695.100000" width="20.000000" height="20.000000" stroke="black" fill="blue" />
</svg>